<svg
   viewBox="0 0 200 200"
   xmlns="http://www.w3.org/2000/svg" >
   <path
      style="fill:#ff6400;stroke:#ff6400;stroke-width:40;stroke-linecap:round;stroke-linejoin:round"
      d="M 20,20 H 180 V 180 H 20 Z" />
   <path
      style="fill:#000;stroke:#ff6400;stroke-width:6;stroke-linecap:round;stroke-linejoin:round"
      d="M 197,100 A 97,97 0 0 1 100,197 97,97 0 0 1 3,100 97,97 0 0 1 100,3 97,97 0 0 1 197,100 Z" />
   <path
      d="M 57.340988,103.70286 31.320388,64 H 18.5 V 136 H 31.890182 V 86.52572 l 20.797486,31.78285 h 8.451946 L 82.506896,86.32 V 136 H 95.897058 V 64 H 83.26662 Z m 115.098362,32.29713 c 7.88215,0 12.06065,-4.52571 12.06065,-13.06284 v -16.14857 c 0,-3.90858 -2.94395,-7.200004 -6.74257,-7.2 3.79862,0 6.74257,-3.188571 6.74257,-7.097142 v -15.42857 c 0,-8.537142 -4.1785,-13.062855 -12.06065,-13.062855 h -54.5103 v 13.165713 h 52.801 v 15.942854 h -52.42105 v 12.96 h 52.42105 v 16.76574 h -52.801 v 13.16569 z"
      style="text-align:center;text-anchor:middle;fill:#ffffff;stroke:#ffffff;stroke-width:4;stroke-linecap:round;stroke-linejoin:round" />
</svg>